<svg width="100%" height="100%" viewBox="0 0 100 100" version="1.1" xmlns="http://www.w3.org/2000/svg">
  <style>
    path {
      fill: #111111;
    }
    @media (prefers-color-scheme: dark) {
      path {
        fill: #ffffff;
      }
    }
  </style>
  <path d="M95,32.51L95,67.26L88.4,67.26L88.4,74.18C86.18,74.26 83.93,74.19 81.45,74.23L81.45,67.27L74.5,67.27L74.5,39.47L67.55,39.47L67.55,46.42L60.6,46.42L60.6,53.37L53.65,53.37L53.65,60.32L46.7,60.32L46.7,67.27L39.75,67.27L39.75,74.22L32.8,74.22L32.8,81.17L25.85,81.17L25.85,88.12L18.9,88.12L18.9,94.95L5,94.95L5,81.16L11.95,81.16L11.95,74.21L18.9,74.21L18.9,67.26L25.85,67.26L25.85,60.31L32.8,60.31L32.8,53.36L39.75,53.36L39.75,46.41L46.7,46.41L46.7,39.46L53.65,39.46L53.65,32.51L60.6,32.51L60.6,25.56L32.8,25.56L32.8,18.61L25.97,18.61C25.93,17.53 25.87,16.42 25.85,15.31C25.83,14.17 25.84,13.03 25.84,11.66L32.79,11.66L32.79,5.06L67.54,5.06L67.54,11.66L88.4,11.66L88.4,32.51L95,32.51Z" fill-rule="nonzero"/>
</svg>
